<?xml version="1.0" encoding="utf-8"?>
<!DOCTYPE svg PUBLIC "-//W3C//DTD SVG 1.1//EN" "http://www.w3.org/Graphics/SVG/1.1/DTD/svg11.dtd">
<svg style="width:308px;height:308px;" version="1.1" id="图形" xmlns="http://www.w3.org/2000/svg" xmlns:xlink="http://www.w3.org/1999/xlink" x="0px" y="0px" width="1024px" height="1024px" viewBox="0 0 1024 1024" enable-background="new 0 0 1024 1024" xml:space="preserve">
  <path class="svgpath" data-index="path_0" fill="#272636" d="M591.136354 134.739456c17.862422 0 33.577932 8.00263 43.545346 20.220439 79.98077-6.338635 162.428557-2.534626 205.042562 0.346321-83.322558-72.43898-195.635333-116.962579-319.32978-116.962579-45.773665 0-89.953702 6.182722-131.723293 17.523001 57.227084 9.735614 125.166655 32.36374 186.132899 81.414344C579.990622 135.772899 585.404815 134.739456 591.136354 134.739456z" />
<path class="svgpath" data-index="path_1" fill="#272636" d="M225.549992 439.770744c3.042379-0.46774 6.101316-0.854074 9.278912-0.854074 1.862681 0 3.613601 0.333903 5.407294 0.507753 60.717887-118.590701 166.049057-200.766674 222.813921-240.016816 19.547114-13.523065 46.235886-23.407693 76.600348-30.574187 2.671223-7.148556 6.83259-13.644484 12.470305-18.944157-69.006128-48.311051-152.015479-64.945483-214.447033-77.208824-79.869009 31.433779-148.056937 82.977617-197.499394 147.540905C154.821919 282.916433 180.733883 364.710212 225.549992 439.770744z" />
<path class="svgpath" data-index="path_2" fill="#272636" d="M205.442694 531.45605c-15.155326-8.927072-25.252437-24.48115-25.252437-42.264925 0-9.959135 3.245205-19.203553 8.680094-27.015776-42.053822-65.529123-66.768151-136.622834-75.521373-202.688685-36.883847 61.313945-58.053563 131.743989-58.053563 206.793483 0 136.451743 69.606325 257.730224 177.737036 336.066315C188.870351 701.04834 185.841769 610.37992 205.442694 531.45605z" />
<path class="svgpath" data-index="path_3" fill="#272636" d="M700.461941 661.843731c97.770065-6.414522 189.271862-35.072217 267.087782-77.948377 11.588636-37.392979 17.93417-76.816971 17.93417-117.615208 0-104.121117-40.446397-199.523507-107.622958-273.718927-75.990493-10.023984-155.114429-5.7274-235.488431 8.845666-0.600197 1.51912-0.987911 3.129304-1.716426 4.572537 37.928328 51.146465 68.837797 118.434787 86.006198 207.377123C745.290467 509.802036 732.546969 592.208431 700.461941 661.843731z" />
<path class="svgpath" data-index="path_4" fill="#272636" d="M699.918314 695.303004c-2.465638 23.275236-22.02517 41.780628-47.052706 44.782994-50.997451 65.264209-120.431306 115.046087-193.682967 150.325269 20.052108 2.424245 40.438118 3.805389 61.210462 3.805389 188.555765 0 350.780116-103.301538 423.806876-251.715833C942.483553 643.200362 837.785695 685.990978 699.918314 695.303004z" />
<path class="svgpath" data-index="path_5" fill="#272636" d="M280.873002 516.079962c37.408157 42.230431 83.361191 78.068417 139.97566 100.801406 60.717887 24.395604 121.604105 38.357434 181.186446 43.738513 9.950857-12.322671 25.780887-20.410846 43.738513-20.410846 0.929961 0 1.824048 0.213863 2.754009 0.264915 15.679636-40.435359 26.714987-85.917893 31.156447-137.605226 11.071225-128.904435-12.973919-217.176206-54.479975-278.84199-9.369976 6.940212-21.115906 11.258873-34.066369 11.258873-14.537192 0-27.702898-5.312091-37.50336-13.856968-31.190941 8.348951-62.45225 17.852764-93.735635 28.674252-98.200551 52.820119-153.767779 127.164553-182.931847 207.457149 7.699082 8.667676 12.491002 19.567811 12.491002 31.629706C289.456513 499.110246 286.269259 508.302233 280.873002 516.079962z" />
<path class="svgpath" data-index="path_6" fill="#272636" d="M408.901288 650.434464c-60.902775-26.612885-111.752591-63.081422-153.447674-105.034521-15.457494 105.327031 2.794022 211.285994 23.031018 286.018142 41.36256 23.240742 86.81336 40.925175 135.345173 51.387924 70.740491-33.511704 140.549642-83.907577 191.286317-159.055034-7.614917-7.846717-12.449609-17.87484-13.531344-28.939166C531.680951 689.957799 469.340462 676.833485 408.901288 650.434464z" />
<path class="svgpath" data-index="path_7" fill="#272636" d="M469.434286 726.248347 572.956586 726.248347 572.956586 796.316893 670.129213 796.316893 670.129213 985.690857 369.086823 985.690857 369.086823 800.792847 471.019635 797.818076Z" />
<path class="svgpath" data-index="path_8" fill="#272636" d="M722.691316 845.52203l254.843758 0 0 101.397464-254.843758 0 0-101.397464Z" />
<path class="svgpath" data-index="path_9" fill="#272636" d="M37.790351 845.52203l278.732989 0 0 101.397464-278.732989 0 0-101.397464Z" />

</svg>
