<?xml version="1.0" encoding="utf-8"?>
<!DOCTYPE svg PUBLIC "-//W3C//DTD SVG 1.1//EN" "http://www.w3.org/Graphics/SVG/1.1/DTD/svg11.dtd">
<svg style="width:308px;height:308px;" version="1.1" id="图形" xmlns="http://www.w3.org/2000/svg" xmlns:xlink="http://www.w3.org/1999/xlink" x="0px" y="0px" width="1024px" height="1024px" viewBox="0 0 1024 1024" enable-background="new 0 0 1024 1024" xml:space="preserve">
  <path class="svgpath" data-index="path_0" fill="#272636" d="M958.775998 834.647421c0 0.050142 0 0.050142 0 0.097214 0 15.462157-12.418844 28.078499-27.831882 28.078499L723.657073 862.823134c15.509229-3.439332 27.176966-17.404392 27.176966-34.161031l-0.046049-0.050142 0.046049 0c0 0 0-127.721917-92.337012-174.150342-39.498596-19.801998-42.089607-16.059767-61.688991-20.74651l0.522909-55.310723c0 0-21.544689-16.655332-28.226878-68.874647-13.491269 3.942799-17.929348-16.006556-18.72855-28.726252-0.747014-12.216229-7.828292-50.51858 8.630564-47.079248-3.343141-25.580608-5.786797-48.620347-4.589528-60.841693 4.14132-42.937928 45.033659-87.735204 107.975177-91.000574 74.081229 3.26537 103.379509 48.062646 107.520829 90.950432 1.197268 12.217253-1.444908 35.311227-4.810562 60.845787 16.48137-3.439332 9.299807 34.760688 8.525164 47.078225-0.747014 12.666484-5.28333 32.564673-18.751063 28.625968-6.682189 52.215222-28.249391 68.724221-28.249391 68.724221l0.49528 55.255465c0 0 13.665231 7.882528 71.219041 31.917944 57.552787 24.139793 39.498596 6.084579 86.376253 29.674856 74.111928 37.255509 74.111928 139.691529 74.111928 139.691529L958.775998 834.646398zM541.298791 645.731794c63.286372 26.483164 43.414789 6.685259 94.982258 32.568766 81.415264 40.943504 81.415264 153.554258 81.415264 153.554258l-0.023536 0 0.023536 0.047072c0 17.058514-13.716396 30.922267-30.621415 30.922267L95.796298 862.824157c-16.908088 0-30.596855-13.863752-30.596855-30.922267l0-0.047072-0.026606 0c0 0 0-112.610754 81.417311-153.554258 51.540863-25.937742 31.692816-4.888334 94.978165-31.422663 63.2393-26.433022 78.225619-35.656081 78.225619-35.656081l0.596588-61.042261c0 0-23.713075-18.306948-31.069623-75.704193-14.812357 4.287653-19.724227-17.553795-20.62269-31.568996-0.798179-13.417591-8.576329-55.558363 9.524934-51.719942-3.714602-28.175713-6.383384-53.462632-5.085832-66.926272 4.562922-47.117111 49.500391-96.365768 118.719892-99.980086 81.390705 3.590781 113.684202 52.815903 118.219495 99.980086 1.298576 13.417591-1.596358 38.800701-5.28333 66.825988 18.077727-3.738138 10.222829 38.301328 9.323343 51.769061-0.797156 13.964036-5.810333 35.756365-20.62269 31.468712-7.355525 57.402361-31.069623 75.553767-31.069623 75.553767l0.550539 60.697407C463.076242 610.575086 478.035956 619.251699 541.298791 645.731794z" />

</svg>
